<svg width="22" height="20" viewBox="0 0 22 20" fill="none" xmlns="http://www.w3.org/2000/svg">
<path fill-rule="evenodd" clip-rule="evenodd" d="M15.5002 5C15.5002 7.48528 13.4855 9.5 11.0002 9.5C8.5149 9.5 6.50018 7.48528 6.50018 5C6.50018 2.51472 8.5149 0.5 11.0002 0.5C13.4855 0.5 15.5002 2.51472 15.5002 5ZM14.0002 5C14.0002 6.65685 12.657 8 11.0002 8C9.34333 8 8.00018 6.65685 8.00018 5C8.00018 3.34315 9.34333 2 11.0002 2C12.657 2 14.0002 3.34315 14.0002 5Z" fill="#EDF0FC"/>
<path d="M11.0002 11.75C6.1444 11.75 2.00714 14.6213 0.431152 18.644C0.815074 19.0253 1.21951 19.3859 1.64265 19.724C2.81621 16.0308 6.49772 13.25 11.0002 13.25C15.5027 13.25 19.1842 16.0308 20.3577 19.7241C20.7809 19.3859 21.1853 19.0253 21.5692 18.644C19.9932 14.6213 15.856 11.75 11.0002 11.75Z" fill="#EDF0FC"/>
</svg>
