<svg width="51" height="50" viewBox="0 0 51 50" fill="none" xmlns="http://www.w3.org/2000/svg">
<rect x="0.5" width="50" height="50" rx="16" fill="#8163D6" fill-opacity="0.15"/>
<path d="M26.75 13.75C27.0686 13.7504 27.375 13.8723 27.6067 14.0911C27.8384 14.3098 27.9778 14.6087 27.9965 14.9267C28.0151 15.2448 27.9117 15.558 27.7072 15.8023C27.5027 16.0466 27.2126 16.2036 26.8962 16.2413L26.75 16.25H16.75V33.75H34.25V23.75C34.2504 23.4314 34.3723 23.125 34.5911 22.8933C34.8098 22.6616 35.1087 22.5222 35.4267 22.5035C35.7448 22.4849 36.058 22.5883 36.3023 22.7928C36.5466 22.9973 36.7036 23.2874 36.7412 23.6038L36.75 23.75V33.75C36.7502 34.3807 36.512 34.9882 36.0831 35.4507C35.6543 35.9132 35.0664 36.1964 34.4375 36.2438L34.25 36.25H16.75C16.1193 36.2502 15.5118 36.012 15.0493 35.5831C14.5868 35.1543 14.3036 34.5664 14.2563 33.9375L14.25 33.75V16.25C14.2498 15.6193 14.488 15.0118 14.9169 14.5493C15.3457 14.0868 15.9336 13.8036 16.5625 13.7563L16.75 13.75H26.75ZM34.5537 14.1787C34.7787 13.9546 35.0805 13.8244 35.398 13.8147C35.7154 13.805 36.0246 13.9165 36.2628 14.1266C36.5011 14.3366 36.6504 14.6294 36.6805 14.9456C36.7106 15.2617 36.6193 15.5775 36.425 15.8288L36.3212 15.9475L23.9462 28.3212C23.7213 28.5454 23.4195 28.6756 23.102 28.6853C22.7846 28.695 22.4754 28.5835 22.2372 28.3734C21.9989 28.1634 21.8496 27.8706 21.8195 27.5544C21.7894 27.2383 21.8807 26.9225 22.075 26.6712L22.1788 26.5538L34.5537 14.1787Z" fill="#BEB5E1" fill-opacity="0.9"/>
</svg>
