<svg width="42" height="38" viewBox="0 0 42 38" fill="none" xmlns="http://www.w3.org/2000/svg">
<path fill-rule="evenodd" clip-rule="evenodd" d="M40.8329 17.6348C38.9806 7.10571 34.8394 4 32.6364 4C29.1987 4 28.3166 6.60127 21.0001 6.68891C13.6836 6.60127 12.8016 4 9.3638 4C7.16086 4 3.01748 7.10571 1.16525 17.6348C0.108932 23.6453 -1.03769 32.6183 1.69446 33.6955C5.09442 35.0357 6.24734 31.6842 9.98121 28.8521C13.7718 25.9815 15.5904 25.3061 21.0001 25.3061C26.4098 25.3061 28.2284 25.9815 32.019 28.8521C35.7529 31.6821 36.9058 35.0357 40.3058 33.6955C43.0379 32.6183 41.8913 23.6474 40.8329 17.6348ZM12.6 19.0006C11.486 19.0006 10.4177 18.5502 9.63005 17.7485C8.84239 16.9468 8.39988 15.8595 8.39988 14.7257C8.39988 13.5919 8.84239 12.5046 9.63005 11.7029C10.4177 10.9012 11.486 10.4508 12.6 10.4508C13.7139 10.4508 14.7822 10.9012 15.5699 11.7029C16.3575 12.5046 16.8 13.5919 16.8 14.7257C16.8 15.8595 16.3575 16.9468 15.5699 17.7485C14.7822 18.5502 13.7139 19.0006 12.6 19.0006ZM27.3002 19.0006C26.7432 19.0006 26.2091 18.7754 25.8153 18.3746C25.4214 17.9737 25.2002 17.43 25.2002 16.8632C25.2002 16.2963 25.4214 15.7526 25.8153 15.3517C26.2091 14.9509 26.7432 14.7257 27.3002 14.7257C27.8572 14.7257 28.3913 14.9509 28.7852 15.3517C29.179 15.7526 29.4003 16.2963 29.4003 16.8632C29.4003 17.43 29.179 17.9737 28.7852 18.3746C28.3913 18.7754 27.8572 19.0006 27.3002 19.0006ZM31.5003 14.7257C30.9433 14.7257 30.4092 14.5005 30.0153 14.0997C29.6215 13.6988 29.4003 13.1551 29.4003 12.5883C29.4003 12.0214 29.6215 11.4777 30.0153 11.0769C30.4092 10.676 30.9433 10.4508 31.5003 10.4508C32.0573 10.4508 32.5914 10.676 32.9852 11.0769C33.3791 11.4777 33.6003 12.0214 33.6003 12.5883C33.6003 13.1551 33.3791 13.6988 32.9852 14.0997C32.5914 14.5005 32.0573 14.7257 31.5003 14.7257Z" fill="#4D0068"/>
</svg>
