<svg width="52" height="74" viewBox="0 0 52 74" fill="none" xmlns="http://www.w3.org/2000/svg">
<rect width="52" height="52" rx="16" fill="#8163D6" fill-opacity="0.15"/>
<g clip-path="url(#clip0_676_8422)">
<path d="M36.8435 33.35C37.7099 31.835 38.2626 30.005 37.6053 27.875C36.8136 25.295 34.5579 23.3 31.869 23.045C30.8718 22.9381 29.8635 23.0567 28.918 23.3921C27.9724 23.7274 27.1136 24.271 26.4045 24.983C25.6955 25.695 25.1541 26.5574 24.8201 27.5068C24.4861 28.4563 24.368 29.4688 24.4745 30.47C24.7434 33.155 26.7152 35.435 29.2846 36.23C31.4208 36.89 33.2284 36.335 34.7372 35.465L38.4718 39.215C39.0544 39.8 39.9805 39.8 40.5631 39.215C40.7015 39.0777 40.8114 38.9142 40.8864 38.734C40.9614 38.5537 41 38.3603 41 38.165C41 37.9697 40.9614 37.7763 40.8864 37.596C40.8114 37.4158 40.7015 37.2523 40.5631 37.115L36.8435 33.35ZM31.1669 33.5C29.0755 33.5 27.4323 31.85 27.4323 29.75C27.4323 27.65 29.0755 26 31.1669 26C33.2583 26 34.9015 27.65 34.9015 29.75C34.9015 31.85 33.2583 33.5 31.1669 33.5ZM25.9384 38V41C17.6924 41 11 34.28 11 26C11 17.72 17.6924 11 25.9384 11C33.1686 11 39.1888 16.16 40.5781 23H37.4858C37.0199 21.1878 36.1383 19.5101 34.9114 18.101C33.6845 16.692 32.1464 15.5906 30.42 14.885V15.5C30.42 17.15 29.0755 18.5 27.4323 18.5H24.4446V21.5C24.4446 22.325 23.7724 23 22.9507 23H19.9631V26H22.9507V30.5H21.4569L14.3014 23.315C14.1072 24.185 13.9877 25.07 13.9877 26C13.9877 32.615 19.3506 38 25.9384 38Z" fill="#4D0068"/>
</g>
<path d="M4.81 63.87V62.554H8.66V63.87H4.81ZM4.768 59.782L5.09 59.334V66.894L4.698 66.67H9.486V68H3.69V58.466H9.486V59.782H4.768ZM15.306 68L13.556 65.298H14.06L12.324 68H10.63L13.206 64.234V64.934L10.63 61.168H12.324L14.06 63.87H13.57L15.306 61.168H17L14.424 64.934V64.234L17 68H15.306ZM21.7356 68.14C21.1196 68.14 20.5829 67.9953 20.1256 67.706C19.6682 67.4073 19.3089 66.992 19.0476 66.46C18.7956 65.928 18.6696 65.3073 18.6696 64.598C18.6696 63.8793 18.7956 63.254 19.0476 62.722C19.3089 62.19 19.6682 61.7747 20.1256 61.476C20.5829 61.1773 21.1196 61.028 21.7356 61.028C22.3702 61.028 22.9209 61.1773 23.3876 61.476C23.8636 61.7747 24.2322 62.19 24.4936 62.722C24.7549 63.254 24.8856 63.8793 24.8856 64.598C24.8856 65.3073 24.7549 65.928 24.4936 66.46C24.2322 66.992 23.8636 67.4073 23.3876 67.706C22.9209 67.9953 22.3702 68.14 21.7356 68.14ZM18.2776 70.66V61.168H19.3416L19.6776 62.54H19.5376V66.432H19.6776V70.66H18.2776ZM21.5256 66.936C22.1042 66.936 22.5709 66.7213 22.9256 66.292C23.2802 65.8627 23.4576 65.298 23.4576 64.598C23.4576 63.8887 23.2802 63.3193 22.9256 62.89C22.5709 62.4513 22.1042 62.232 21.5256 62.232C20.9562 62.232 20.4942 62.4467 20.1396 62.876C19.7849 63.3053 19.6076 63.8747 19.6076 64.584C19.6076 65.2933 19.7849 65.8627 20.1396 66.292C20.4942 66.7213 20.9562 66.936 21.5256 66.936ZM27.5796 68.07C27.3369 68.07 27.1222 68.014 26.9356 67.902C26.7489 67.7807 26.5996 67.608 26.4876 67.384C26.3849 67.16 26.3336 66.8847 26.3336 66.558V58.466H27.7056V66.068C27.7056 66.3573 27.7756 66.5533 27.9156 66.656C28.0649 66.7587 28.2329 66.81 28.4196 66.81V67.93C28.2982 67.9767 28.1676 68.0093 28.0276 68.028C27.8876 68.056 27.7382 68.07 27.5796 68.07ZM33.0126 68.14C32.3219 68.14 31.7106 67.9953 31.1786 67.706C30.6559 67.4073 30.2499 66.992 29.9606 66.46C29.6712 65.928 29.5266 65.3073 29.5266 64.598C29.5266 63.8793 29.6712 63.254 29.9606 62.722C30.2499 62.19 30.6559 61.7747 31.1786 61.476C31.7106 61.1773 32.3219 61.028 33.0126 61.028C33.7126 61.028 34.3239 61.1773 34.8466 61.476C35.3692 61.7747 35.7752 62.19 36.0646 62.722C36.3632 63.254 36.5126 63.8793 36.5126 64.598C36.5126 65.3073 36.3632 65.928 36.0646 66.46C35.7752 66.992 35.3692 67.4073 34.8466 67.706C34.3239 67.9953 33.7126 68.14 33.0126 68.14ZM33.0126 66.796C33.6379 66.796 34.1372 66.5953 34.5106 66.194C34.8932 65.7833 35.0846 65.2513 35.0846 64.598C35.0846 63.9353 34.8932 63.3987 34.5106 62.988C34.1372 62.5773 33.6379 62.372 33.0126 62.372C32.3966 62.372 31.8972 62.5773 31.5146 62.988C31.1412 63.3893 30.9546 63.9213 30.9546 64.584C30.9546 65.2467 31.1412 65.7833 31.5146 66.194C31.8972 66.5953 32.3966 66.796 33.0126 66.796ZM39.0389 61.168L39.3749 63.016V68H37.9749V61.168H39.0389ZM39.1649 63.59L38.8289 63.436V62.414L38.9549 62.26C39.0482 62.092 39.1929 61.9147 39.3889 61.728C39.5942 61.532 39.8322 61.3687 40.1029 61.238C40.3736 61.098 40.6489 61.028 40.9289 61.028C41.0689 61.028 41.1996 61.0373 41.3209 61.056C41.4516 61.0747 41.5496 61.1073 41.6149 61.154V62.414H41.1809C40.5462 62.414 40.0842 62.512 39.7949 62.708C39.5056 62.8947 39.2956 63.1887 39.1649 63.59ZM45.3749 68.14C44.7122 68.14 44.1289 67.9953 43.6249 67.706C43.1209 67.4073 42.7289 66.992 42.4489 66.46C42.1689 65.928 42.0289 65.3073 42.0289 64.598C42.0289 63.8793 42.1689 63.254 42.4489 62.722C42.7289 62.19 43.1209 61.7747 43.6249 61.476C44.1289 61.1773 44.7122 61.028 45.3749 61.028C46.0469 61.028 46.6349 61.1773 47.1389 61.476C47.6429 61.7747 48.0349 62.19 48.3149 62.722C48.5949 63.254 48.7349 63.8793 48.7349 64.598C48.7349 64.6633 48.7302 64.7333 48.7209 64.808C48.7209 64.8733 48.7162 64.934 48.7069 64.99H43.3589V63.786H47.6989L47.3069 64.598C47.3069 63.8887 47.1482 63.3053 46.8309 62.848C46.5136 62.3907 46.0282 62.162 45.3749 62.162C44.7962 62.162 44.3342 62.3487 43.9889 62.722C43.6436 63.086 43.4709 63.5667 43.4709 64.164V64.892C43.4709 65.5173 43.6389 66.0167 43.9749 66.39C44.3109 66.754 44.7776 66.936 45.3749 66.936C45.9256 66.936 46.3502 66.8193 46.6489 66.586C46.9476 66.3527 47.2089 66.0633 47.4329 65.718L48.4829 66.376C48.1656 66.964 47.7549 67.4073 47.2509 67.706C46.7562 67.9953 46.1309 68.14 45.3749 68.14Z" fill="#4D0068"/>
<defs>
<clipPath id="clip0_676_8422">
<rect width="30" height="30" fill="white" transform="translate(11 11)"/>
</clipPath>
</defs>
</svg>
