<svg width="52" height="72" viewBox="0 0 52 72" fill="none" xmlns="http://www.w3.org/2000/svg">
<rect width="52" height="50" rx="16" fill="#8163D6" fill-opacity="0.15"/>
<path fill-rule="evenodd" clip-rule="evenodd" d="M45.8329 23.6348C43.9806 13.1057 39.8394 10 37.6364 10C34.1987 10 33.3166 12.6013 26.0001 12.6889C18.6836 12.6013 17.8016 10 14.3638 10C12.1609 10 8.01748 13.1057 6.16525 23.6348C5.10893 29.6453 3.96231 38.6183 6.69446 39.6955C10.0944 41.0357 11.2473 37.6842 14.9812 34.8521C18.7718 31.9815 20.5904 31.3061 26.0001 31.3061C31.4098 31.3061 33.2284 31.9815 37.019 34.8521C40.7529 37.6821 41.9058 41.0357 45.3058 39.6955C48.0379 38.6183 46.8913 29.6474 45.8329 23.6348ZM17.6 25.0006C16.486 25.0006 15.4177 24.5502 14.6301 23.7485C13.8424 22.9468 13.3999 21.8595 13.3999 20.7257C13.3999 19.5919 13.8424 18.5046 14.6301 17.7029C15.4177 16.9012 16.486 16.4508 17.6 16.4508C18.7139 16.4508 19.7822 16.9012 20.5699 17.7029C21.3575 18.5046 21.8 19.5919 21.8 20.7257C21.8 21.8595 21.3575 22.9468 20.5699 23.7485C19.7822 24.5502 18.7139 25.0006 17.6 25.0006ZM32.3002 25.0006C31.7432 25.0006 31.2091 24.7754 30.8153 24.3746C30.4214 23.9737 30.2002 23.43 30.2002 22.8632C30.2002 22.2963 30.4214 21.7526 30.8153 21.3517C31.2091 20.9509 31.7432 20.7257 32.3002 20.7257C32.8572 20.7257 33.3913 20.9509 33.7852 21.3517C34.179 21.7526 34.4003 22.2963 34.4003 22.8632C34.4003 23.43 34.179 23.9737 33.7852 24.3746C33.3913 24.7754 32.8572 25.0006 32.3002 25.0006ZM36.5003 20.7257C35.9433 20.7257 35.4092 20.5005 35.0153 20.0997C34.6215 19.6988 34.4003 19.1551 34.4003 18.5883C34.4003 18.0214 34.6215 17.4777 35.0153 17.0769C35.4092 16.676 35.9433 16.4508 36.5003 16.4508C37.0573 16.4508 37.5914 16.676 37.9852 17.0769C38.3791 17.4777 38.6003 18.0214 38.6003 18.5883C38.6003 19.1551 38.3791 19.6988 37.9852 20.0997C37.5914 20.5005 37.0573 20.7257 36.5003 20.7257Z" fill="#4D0068"/>
<path d="M12.736 66.14C11.7747 66.14 10.93 65.93 10.202 65.51C9.48333 65.0807 8.92333 64.4973 8.522 63.76C8.12067 63.0133 7.92 62.1733 7.92 61.24C7.92 60.5307 8.04133 59.8773 8.284 59.28C8.52667 58.6827 8.86267 58.1647 9.292 57.726C9.73067 57.2873 10.2393 56.9467 10.818 56.704C11.406 56.4613 12.0453 56.34 12.736 56.34C13.8187 56.34 14.7053 56.564 15.396 57.012C16.0867 57.4507 16.6513 58.0433 17.09 58.79L15.718 59.196C15.2887 58.608 14.8267 58.2113 14.332 58.006C13.8467 57.7913 13.3147 57.684 12.736 57.684C12.092 57.684 11.5133 57.838 11 58.146C10.496 58.454 10.0947 58.874 9.796 59.406C9.49733 59.938 9.348 60.5493 9.348 61.24C9.348 61.9213 9.49733 62.5327 9.796 63.074C10.0947 63.606 10.496 64.026 11 64.334C11.5133 64.642 12.092 64.796 12.736 64.796C13.352 64.796 13.912 64.6607 14.416 64.39C14.9293 64.11 15.3353 63.732 15.634 63.256C15.9327 62.78 16.082 62.2387 16.082 61.632L16.292 62.444H12.652V61.128H17.328C17.356 61.2213 17.3747 61.3287 17.384 61.45C17.4027 61.5713 17.412 61.688 17.412 61.8C17.412 62.3973 17.2953 62.9573 17.062 63.48C16.8287 64.0027 16.4973 64.4647 16.068 64.866C15.648 65.2673 15.1533 65.58 14.584 65.804C14.024 66.028 13.408 66.14 12.736 66.14ZM20.8495 66.196C20.3175 66.196 19.8602 66.1027 19.4775 65.916C19.0949 65.7293 18.8009 65.4633 18.5955 65.118C18.3995 64.7633 18.3015 64.3433 18.3015 63.858C18.3015 63.41 18.4042 63.0133 18.6095 62.668C18.8149 62.3133 19.1089 62.0333 19.4915 61.828C19.8742 61.6227 20.3269 61.52 20.8495 61.52C21.5029 61.52 22.0255 61.6693 22.4175 61.968C22.8189 62.2573 23.0989 62.6587 23.2575 63.172H22.4735V61.422C22.4735 61.1327 22.3755 60.8667 22.1795 60.624C21.9835 60.3813 21.6382 60.26 21.1435 60.26C20.8822 60.26 20.5929 60.2927 20.2755 60.358C19.9675 60.414 19.6455 60.5167 19.3095 60.666L18.8895 59.588C19.2722 59.4013 19.6689 59.2613 20.0795 59.168C20.4902 59.0747 20.8915 59.028 21.2835 59.028C21.8715 59.028 22.3569 59.1353 22.7395 59.35C23.1222 59.5647 23.4069 59.854 23.5935 60.218C23.7802 60.5727 23.8735 60.974 23.8735 61.422V66H22.8655L22.5155 64.754L23.2575 64.544C23.0895 65.0947 22.7909 65.51 22.3615 65.79C21.9322 66.0607 21.4282 66.196 20.8495 66.196ZM21.1015 64.95C21.5122 64.95 21.8435 64.8567 22.0955 64.67C22.3475 64.474 22.4735 64.2033 22.4735 63.858C22.4735 63.5033 22.3475 63.2327 22.0955 63.046C21.8435 62.8593 21.5122 62.766 21.1015 62.766C20.6909 62.766 20.3595 62.8593 20.1075 63.046C19.8555 63.2327 19.7295 63.5033 19.7295 63.858C19.7295 64.2033 19.8555 64.474 20.1075 64.67C20.3595 64.8567 20.6909 64.95 21.1015 64.95ZM25.7522 66V59.168H26.8162L27.1102 60.372L26.7602 60.414C27.0122 60.1153 27.2782 59.8633 27.5582 59.658C27.8382 59.4527 28.1368 59.2987 28.4542 59.196C28.7715 59.084 29.1028 59.028 29.4482 59.028C29.9335 59.028 30.3162 59.112 30.5962 59.28C30.8762 59.4387 31.0815 59.658 31.2122 59.938C31.3428 60.2087 31.4268 60.5167 31.4642 60.862C31.5015 61.2073 31.5202 61.562 31.5202 61.926V66H30.1202V61.632C30.1202 61.1467 30.0082 60.82 29.7842 60.652C29.5695 60.484 29.3128 60.4 29.0142 60.4C28.5848 60.4 28.1742 60.5353 27.7822 60.806C27.3902 61.0673 27.1055 61.3847 26.9282 61.758V60.974H27.1522V66H25.7522ZM34.4882 66V61.632C34.4882 61.1467 34.3762 60.82 34.1522 60.652C33.9375 60.484 33.6808 60.4 33.3822 60.4C32.9528 60.4 32.5422 60.5353 32.1502 60.806C31.7582 61.0673 31.4735 61.3847 31.2962 61.758L31.1282 60.414C31.3802 60.1153 31.6462 59.8633 31.9262 59.658C32.2062 59.4527 32.5048 59.2987 32.8222 59.196C33.1395 59.084 33.4708 59.028 33.8162 59.028C34.3015 59.028 34.6842 59.112 34.9642 59.28C35.2442 59.4387 35.4495 59.658 35.5802 59.938C35.7108 60.2087 35.7948 60.5167 35.8322 60.862C35.8695 61.2073 35.8882 61.562 35.8882 61.926V66H34.4882ZM40.617 66.14C39.9543 66.14 39.371 65.9953 38.867 65.706C38.363 65.4073 37.971 64.992 37.691 64.46C37.411 63.928 37.271 63.3073 37.271 62.598C37.271 61.8793 37.411 61.254 37.691 60.722C37.971 60.19 38.363 59.7747 38.867 59.476C39.371 59.1773 39.9543 59.028 40.617 59.028C41.289 59.028 41.877 59.1773 42.381 59.476C42.885 59.7747 43.277 60.19 43.557 60.722C43.837 61.254 43.977 61.8793 43.977 62.598C43.977 62.6633 43.9723 62.7333 43.963 62.808C43.963 62.8733 43.9583 62.934 43.949 62.99H38.601V61.786H42.941L42.549 62.598C42.549 61.8887 42.3903 61.3053 42.073 60.848C41.7557 60.3907 41.2703 60.162 40.617 60.162C40.0383 60.162 39.5763 60.3487 39.231 60.722C38.8857 61.086 38.713 61.5667 38.713 62.164V62.892C38.713 63.5173 38.881 64.0167 39.217 64.39C39.553 64.754 40.0197 64.936 40.617 64.936C41.1677 64.936 41.5923 64.8193 41.891 64.586C42.1897 64.3527 42.451 64.0633 42.675 63.718L43.725 64.376C43.4077 64.964 42.997 65.4073 42.493 65.706C41.9983 65.9953 41.373 66.14 40.617 66.14Z" fill="#4D0068"/>
</svg>
