<svg width="52" height="74" viewBox="0 0 52 74" fill="none" xmlns="http://www.w3.org/2000/svg">
<rect width="52" height="52" rx="16" fill="#8163D6" fill-opacity="0.15"/>
<path opacity="0.16" d="M33.5183 39.4999H18.5181C17.7224 39.4999 16.9594 39.1838 16.3968 38.6212C15.8341 38.0586 15.5181 37.2955 15.5181 36.4999V22.9997L26.0182 12.4996L36.5183 22.9997V36.4999C36.5183 37.2955 36.2022 38.0586 35.6396 38.6212C35.077 39.1838 34.3139 39.4999 33.5183 39.4999Z" fill="#4D0068"/>
<path d="M38.0185 22.9998C38.0185 22.602 37.8604 22.2204 37.5791 21.9391C37.2978 21.6578 36.9163 21.4998 36.5185 21.4998C36.1206 21.4998 35.7391 21.6578 35.4578 21.9391C35.1765 22.2204 35.0184 22.602 35.0184 22.9998H38.0185ZM17.0183 22.9998C17.0183 22.602 16.8602 22.2204 16.5789 21.9391C16.2976 21.6578 15.9161 21.4998 15.5182 21.4998C15.1204 21.4998 14.7389 21.6578 14.4576 21.9391C14.1763 22.2204 14.0182 22.602 14.0182 22.9998H17.0183ZM38.458 27.0604C38.7409 27.3336 39.1198 27.4848 39.5131 27.4814C39.9064 27.4779 40.2826 27.3202 40.5607 27.0421C40.8388 26.764 40.9966 26.3877 41 25.9944C41.0034 25.6011 40.8522 25.2222 40.579 24.9393L38.458 27.0604ZM26.0183 12.4997L27.0789 11.4392C26.7976 11.158 26.4161 11 26.0183 11C25.6206 11 25.2391 11.158 24.9578 11.4392L26.0183 12.4997ZM11.4577 24.9393C11.3144 25.0777 11.2002 25.2432 11.1215 25.4262C11.0429 25.6092 11.0015 25.8061 10.9998 26.0052C10.9981 26.2044 11.036 26.4019 11.1115 26.5863C11.1869 26.7706 11.2983 26.9381 11.4391 27.0789C11.5799 27.2198 11.7474 27.3312 11.9318 27.4066C12.1161 27.482 12.3136 27.52 12.5128 27.5182C12.712 27.5165 12.9088 27.4751 13.0918 27.3965C13.2748 27.3179 13.4403 27.2036 13.5787 27.0604L11.4577 24.9393ZM18.5183 41H33.5184V38H18.5183V41ZM38.0185 36.5V22.9998H35.0184V36.5H38.0185ZM17.0183 36.5V22.9998H14.0182V36.5H17.0183ZM40.579 24.9393L27.0789 11.4392L24.9578 13.5602L38.458 27.0604L40.579 24.9393ZM24.9578 11.4392L11.4577 24.9393L13.5787 27.0604L27.0789 13.5602L24.9578 11.4392ZM33.5184 41C34.7119 41 35.8565 40.5259 36.7004 39.682C37.5444 38.838 38.0185 37.6934 38.0185 36.5H35.0184C35.0184 36.8978 34.8604 37.2793 34.5791 37.5606C34.2978 37.8419 33.9163 38 33.5184 38V41ZM18.5183 38C18.1204 38 17.7389 37.8419 17.4576 37.5606C17.1763 37.2793 17.0183 36.8978 17.0183 36.5H14.0182C14.0182 37.6934 14.4923 38.838 15.3363 39.682C16.1802 40.5259 17.3248 41 18.5183 41V38Z" fill="#4D0068"/>
<path d="M14.182 68V58.466H15.582V68H14.182ZM8.19 68V58.466H9.59V68H8.19ZM9.114 63.996V62.68H14.602V63.996H9.114ZM20.8914 68.14C20.2007 68.14 19.5894 67.9953 19.0574 67.706C18.5347 67.4073 18.1287 66.992 17.8394 66.46C17.5501 65.928 17.4054 65.3073 17.4054 64.598C17.4054 63.8793 17.5501 63.254 17.8394 62.722C18.1287 62.19 18.5347 61.7747 19.0574 61.476C19.5894 61.1773 20.2007 61.028 20.8914 61.028C21.5914 61.028 22.2027 61.1773 22.7254 61.476C23.2481 61.7747 23.6541 62.19 23.9434 62.722C24.2421 63.254 24.3914 63.8793 24.3914 64.598C24.3914 65.3073 24.2421 65.928 23.9434 66.46C23.6541 66.992 23.2481 67.4073 22.7254 67.706C22.2027 67.9953 21.5914 68.14 20.8914 68.14ZM20.8914 66.796C21.5167 66.796 22.0161 66.5953 22.3894 66.194C22.7721 65.7833 22.9634 65.2513 22.9634 64.598C22.9634 63.9353 22.7721 63.3987 22.3894 62.988C22.0161 62.5773 21.5167 62.372 20.8914 62.372C20.2754 62.372 19.7761 62.5773 19.3934 62.988C19.0201 63.3893 18.8334 63.9213 18.8334 64.584C18.8334 65.2467 19.0201 65.7833 19.3934 66.194C19.7761 66.5953 20.2754 66.796 20.8914 66.796ZM25.8537 68V61.168H26.9177L27.2117 62.372L26.8617 62.414C27.1137 62.1153 27.3797 61.8633 27.6597 61.658C27.9397 61.4527 28.2384 61.2987 28.5557 61.196C28.8731 61.084 29.2044 61.028 29.5497 61.028C30.0351 61.028 30.4177 61.112 30.6977 61.28C30.9777 61.4387 31.1831 61.658 31.3137 61.938C31.4444 62.2087 31.5284 62.5167 31.5657 62.862C31.6031 63.2073 31.6217 63.562 31.6217 63.926V68H30.2217V63.632C30.2217 63.1467 30.1097 62.82 29.8857 62.652C29.6711 62.484 29.4144 62.4 29.1157 62.4C28.6864 62.4 28.2757 62.5353 27.8837 62.806C27.4917 63.0673 27.2071 63.3847 27.0297 63.758V62.974H27.2537V68H25.8537ZM34.5897 68V63.632C34.5897 63.1467 34.4777 62.82 34.2537 62.652C34.0391 62.484 33.7824 62.4 33.4837 62.4C33.0544 62.4 32.6437 62.5353 32.2517 62.806C31.8597 63.0673 31.5751 63.3847 31.3977 63.758L31.2297 62.414C31.4817 62.1153 31.7477 61.8633 32.0277 61.658C32.3077 61.4527 32.6064 61.2987 32.9237 61.196C33.2411 61.084 33.5724 61.028 33.9177 61.028C34.4031 61.028 34.7857 61.112 35.0657 61.28C35.3457 61.4387 35.5511 61.658 35.6817 61.938C35.8124 62.2087 35.8964 62.5167 35.9337 62.862C35.9711 63.2073 35.9897 63.562 35.9897 63.926V68H34.5897ZM40.7186 68.14C40.0559 68.14 39.4726 67.9953 38.9686 67.706C38.4646 67.4073 38.0726 66.992 37.7926 66.46C37.5126 65.928 37.3726 65.3073 37.3726 64.598C37.3726 63.8793 37.5126 63.254 37.7926 62.722C38.0726 62.19 38.4646 61.7747 38.9686 61.476C39.4726 61.1773 40.0559 61.028 40.7186 61.028C41.3906 61.028 41.9786 61.1773 42.4826 61.476C42.9866 61.7747 43.3786 62.19 43.6586 62.722C43.9386 63.254 44.0786 63.8793 44.0786 64.598C44.0786 64.6633 44.0739 64.7333 44.0646 64.808C44.0646 64.8733 44.0599 64.934 44.0506 64.99H38.7026V63.786H43.0426L42.6506 64.598C42.6506 63.8887 42.4919 63.3053 42.1746 62.848C41.8572 62.3907 41.3719 62.162 40.7186 62.162C40.1399 62.162 39.6779 62.3487 39.3326 62.722C38.9872 63.086 38.8146 63.5667 38.8146 64.164V64.892C38.8146 65.5173 38.9826 66.0167 39.3186 66.39C39.6546 66.754 40.1212 66.936 40.7186 66.936C41.2692 66.936 41.6939 66.8193 41.9926 66.586C42.2912 66.3527 42.5526 66.0633 42.7766 65.718L43.8266 66.376C43.5092 66.964 43.0986 67.4073 42.5946 67.706C42.0999 67.9953 41.4746 68.14 40.7186 68.14Z" fill="#4D0068"/>
</svg>
