<svg width="30" height="30" viewBox="0 0 30 30" fill="none" xmlns="http://www.w3.org/2000/svg">
<path d="M27.0185 11.9998C27.0185 11.602 26.8604 11.2204 26.5791 10.9391C26.2978 10.6578 25.9163 10.4998 25.5185 10.4998C25.1206 10.4998 24.7391 10.6578 24.4578 10.9391C24.1765 11.2204 24.0184 11.602 24.0184 11.9998H27.0185ZM6.01825 11.9998C6.01825 11.602 5.86021 11.2204 5.57891 10.9391C5.2976 10.6578 4.91607 10.4998 4.51824 10.4998C4.12041 10.4998 3.73887 10.6578 3.45756 10.9391C3.17626 11.2204 3.01822 11.602 3.01822 11.9998H6.01825ZM27.458 16.0604C27.7409 16.3336 28.1198 16.4848 28.5131 16.4814C28.9064 16.4779 29.2826 16.3202 29.5607 16.0421C29.8388 15.764 29.9966 15.3877 30 14.9944C30.0034 14.6011 29.8522 14.2222 29.579 13.9393L27.458 16.0604ZM15.0183 1.4997L16.0789 0.439184C15.7976 0.157975 15.4161 0 15.0183 0C14.6206 0 14.2391 0.157975 13.9578 0.439184L15.0183 1.4997ZM0.457693 13.9393C0.314426 14.0777 0.200152 14.2432 0.121537 14.4262C0.0429231 14.6092 0.00154324 14.8061 -0.000187505 15.0052C-0.00191825 15.2044 0.0360348 15.4019 0.111457 15.5863C0.186879 15.7706 0.29826 15.9381 0.4391 16.0789C0.579941 16.2198 0.74742 16.3312 0.931767 16.4066C1.11611 16.482 1.31364 16.52 1.51281 16.5182C1.71198 16.5165 1.90881 16.4751 2.09182 16.3965C2.27483 16.3179 2.44034 16.2036 2.57872 16.0604L0.457693 13.9393ZM7.51827 30H22.5184V27H7.51827V30ZM27.0185 25.5V11.9998H24.0184V25.5H27.0185ZM6.01825 25.5V11.9998H3.01822V25.5H6.01825ZM29.579 13.9393L16.0789 0.439184L13.9578 2.56021L27.458 16.0604L29.579 13.9393ZM13.9578 0.439184L0.457693 13.9393L2.57872 16.0604L16.0789 2.56021L13.9578 0.439184ZM22.5184 30C23.7119 30 24.8565 29.5259 25.7004 28.682C26.5444 27.838 27.0185 26.6934 27.0185 25.5H24.0184C24.0184 25.8978 23.8604 26.2793 23.5791 26.5606C23.2978 26.8419 22.9163 27 22.5184 27V30ZM7.51827 27C7.12044 27 6.7389 26.8419 6.4576 26.5606C6.17629 26.2793 6.01825 25.8978 6.01825 25.5H3.01822C3.01822 26.6934 3.49233 27.838 4.33625 28.682C5.18018 29.5259 6.32478 30 7.51827 30V27Z" fill="#4D0068"/>
</svg>
