<svg width="52" height="74" viewBox="0 0 52 74" fill="none" xmlns="http://www.w3.org/2000/svg">
<rect width="52" height="52" rx="16" fill="#8163D6" fill-opacity="0.15"/>
<path d="M7.5 26H44.5M7.5 14H44.5M7.5 38H44.5" stroke="#4D0068" stroke-width="4" stroke-linecap="round" stroke-linejoin="round"/>
<path d="M10.004 68L11.754 58.466H13L15.618 65.424H15.66L18.278 58.466H19.524L21.274 68H19.804L19.034 63.464C18.922 62.8107 18.8287 62.1667 18.754 61.532C18.6793 60.888 18.6327 60.244 18.614 59.6H18.964C18.796 60.3747 18.6187 61.056 18.432 61.644C18.2547 62.232 18.0493 62.8387 17.816 63.464L16.178 67.846H15.1L13.462 63.464C13.2287 62.8293 13.0187 62.2227 12.832 61.644C12.6547 61.056 12.482 60.3747 12.314 59.6H12.664C12.6453 60.244 12.5987 60.888 12.524 61.532C12.4493 62.1667 12.356 62.8107 12.244 63.464L11.474 68H10.004ZM25.8933 68.14C25.2027 68.14 24.5913 67.9953 24.0593 67.706C23.5367 67.4073 23.1307 66.992 22.8413 66.46C22.552 65.928 22.4073 65.3073 22.4073 64.598C22.4073 63.8793 22.552 63.254 22.8413 62.722C23.1307 62.19 23.5367 61.7747 24.0593 61.476C24.5913 61.1773 25.2027 61.028 25.8933 61.028C26.5933 61.028 27.2047 61.1773 27.7273 61.476C28.25 61.7747 28.656 62.19 28.9453 62.722C29.244 63.254 29.3933 63.8793 29.3933 64.598C29.3933 65.3073 29.244 65.928 28.9453 66.46C28.656 66.992 28.25 67.4073 27.7273 67.706C27.2047 67.9953 26.5933 68.14 25.8933 68.14ZM25.8933 66.796C26.5187 66.796 27.018 66.5953 27.3913 66.194C27.774 65.7833 27.9653 65.2513 27.9653 64.598C27.9653 63.9353 27.774 63.3987 27.3913 62.988C27.018 62.5773 26.5187 62.372 25.8933 62.372C25.2773 62.372 24.778 62.5773 24.3953 62.988C24.022 63.3893 23.8353 63.9213 23.8353 64.584C23.8353 65.2467 24.022 65.7833 24.3953 66.194C24.778 66.5953 25.2773 66.796 25.8933 66.796ZM31.9197 61.168L32.2557 63.016V68H30.8557V61.168H31.9197ZM32.0457 63.59L31.7097 63.436V62.414L31.8357 62.26C31.929 62.092 32.0737 61.9147 32.2697 61.728C32.475 61.532 32.713 61.3687 32.9837 61.238C33.2544 61.098 33.5297 61.028 33.8097 61.028C33.9497 61.028 34.0804 61.0373 34.2017 61.056C34.3324 61.0747 34.4304 61.1073 34.4957 61.154V62.414H34.0617C33.427 62.414 32.965 62.512 32.6757 62.708C32.3864 62.8947 32.1764 63.1887 32.0457 63.59ZM38.2557 68.14C37.593 68.14 37.0097 67.9953 36.5057 67.706C36.0017 67.4073 35.6097 66.992 35.3297 66.46C35.0497 65.928 34.9097 65.3073 34.9097 64.598C34.9097 63.8793 35.0497 63.254 35.3297 62.722C35.6097 62.19 36.0017 61.7747 36.5057 61.476C37.0097 61.1773 37.593 61.028 38.2557 61.028C38.9277 61.028 39.5157 61.1773 40.0197 61.476C40.5237 61.7747 40.9157 62.19 41.1957 62.722C41.4757 63.254 41.6157 63.8793 41.6157 64.598C41.6157 64.6633 41.611 64.7333 41.6017 64.808C41.6017 64.8733 41.597 64.934 41.5877 64.99H36.2397V63.786H40.5797L40.1877 64.598C40.1877 63.8887 40.029 63.3053 39.7117 62.848C39.3943 62.3907 38.909 62.162 38.2557 62.162C37.677 62.162 37.215 62.3487 36.8697 62.722C36.5243 63.086 36.3517 63.5667 36.3517 64.164V64.892C36.3517 65.5173 36.5197 66.0167 36.8557 66.39C37.1917 66.754 37.6583 66.936 38.2557 66.936C38.8063 66.936 39.231 66.8193 39.5297 66.586C39.8283 66.3527 40.0897 66.0633 40.3137 65.718L41.3637 66.376C41.0463 66.964 40.6357 67.4073 40.1317 67.706C39.637 67.9953 39.0117 68.14 38.2557 68.14Z" fill="#4D0068"/>
</svg>
