<svg width="54" height="74" viewBox="0 0 54 74" fill="none" xmlns="http://www.w3.org/2000/svg">
<rect x="0.5" width="52" height="52" rx="16" fill="#8163D6" fill-opacity="0.15"/>
<path d="M26.4999 13.5C25.7264 13.5 24.9845 13.8073 24.4375 14.3543C23.8905 14.9013 23.5833 15.6431 23.5833 16.4167C23.5833 17.1902 23.8905 17.9321 24.4375 18.4791C24.9845 19.026 25.7264 19.3333 26.4999 19.3333C27.2735 19.3333 28.0153 19.026 28.5623 18.4791C29.1093 17.9321 29.4166 17.1902 29.4166 16.4167C29.4166 15.6431 29.1093 14.9013 28.5623 14.3543C28.0153 13.8073 27.2735 13.5 26.4999 13.5ZM21.0833 16.4167C21.0833 14.9801 21.6539 13.6023 22.6698 12.5865C23.6856 11.5707 25.0633 11 26.4999 11C27.9365 11 29.3143 11.5707 30.3301 12.5865C31.3459 13.6023 31.9166 14.9801 31.9166 16.4167C31.9166 17.8533 31.3459 19.231 30.3301 20.2468C29.3143 21.2627 27.9365 21.8333 26.4999 21.8333C25.0633 21.8333 23.6856 21.2627 22.6698 20.2468C21.6539 19.231 21.0833 17.8533 21.0833 16.4167ZM14.8333 16.8333C14.1702 16.8333 13.5343 17.0967 13.0655 17.5656C12.5966 18.0344 12.3333 18.6703 12.3333 19.3333C12.3333 19.9964 12.5966 20.6323 13.0655 21.1011C13.5343 21.5699 14.1702 21.8333 14.8333 21.8333C15.4963 21.8333 16.1322 21.5699 16.601 21.1011C17.0699 20.6323 17.3333 19.9964 17.3333 19.3333C17.3333 18.6703 17.0699 18.0344 16.601 17.5656C16.1322 17.0967 15.4963 16.8333 14.8333 16.8333ZM9.83325 19.3333C9.83325 18.0073 10.36 16.7355 11.2977 15.7978C12.2354 14.8601 13.5072 14.3333 14.8333 14.3333C16.1593 14.3333 17.4311 14.8601 18.3688 15.7978C19.3065 16.7355 19.8333 18.0073 19.8333 19.3333C19.8333 20.6594 19.3065 21.9312 18.3688 22.8689C17.4311 23.8066 16.1593 24.3333 14.8333 24.3333C13.5072 24.3333 12.2354 23.8066 11.2977 22.8689C10.36 21.9312 9.83325 20.6594 9.83325 19.3333ZM35.6666 19.3333C35.6666 18.6703 35.93 18.0344 36.3988 17.5656C36.8677 17.0967 37.5035 16.8333 38.1666 16.8333C38.8296 16.8333 39.4655 17.0967 39.9344 17.5656C40.4032 18.0344 40.6666 18.6703 40.6666 19.3333C40.6666 19.9964 40.4032 20.6323 39.9344 21.1011C39.4655 21.5699 38.8296 21.8333 38.1666 21.8333C37.5035 21.8333 36.8677 21.5699 36.3988 21.1011C35.93 20.6323 35.6666 19.9964 35.6666 19.3333ZM38.1666 14.3333C36.8405 14.3333 35.5687 14.8601 34.6311 15.7978C33.6934 16.7355 33.1666 18.0073 33.1666 19.3333C33.1666 20.6594 33.6934 21.9312 34.6311 22.8689C35.5687 23.8066 36.8405 24.3333 38.1666 24.3333C39.4927 24.3333 40.7644 23.8066 41.7021 22.8689C42.6398 21.9312 43.1666 20.6594 43.1666 19.3333C43.1666 18.0073 42.6398 16.7355 41.7021 15.7978C40.7644 14.8601 39.4927 14.3333 38.1666 14.3333ZM18.9999 27.25C18.9999 25.64 20.3066 24.3333 21.9166 24.3333H31.0833C32.6933 24.3333 33.9999 25.64 33.9999 27.25V33.5C33.9999 35.4891 33.2097 37.3968 31.8032 38.8033C30.3967 40.2098 28.489 41 26.4999 41C24.5108 41 22.6031 40.2098 21.1966 38.8033C19.7901 37.3968 18.9999 35.4891 18.9999 33.5V27.25ZM21.9166 26.8333C21.8061 26.8333 21.7001 26.8772 21.622 26.9554C21.5438 27.0335 21.4999 27.1395 21.4999 27.25V33.5C21.4999 34.8261 22.0267 36.0979 22.9644 37.0355C23.9021 37.9732 25.1738 38.5 26.4999 38.5C27.826 38.5 29.0978 37.9732 30.0355 37.0355C30.9731 36.0979 31.4999 34.8261 31.4999 33.5V27.25C31.4999 27.1395 31.456 27.0335 31.3779 26.9554C31.2997 26.8772 31.1938 26.8333 31.0833 26.8333H21.9166ZM17.5166 25.9633C17.3955 26.3733 17.3344 26.8022 17.3333 27.25V28.6L12.6433 29.8567C12.5365 29.8852 12.4455 29.9549 12.3901 30.0506C12.3348 30.1462 12.3198 30.2599 12.3483 30.3667L13.5349 34.795C13.8393 35.931 14.5343 36.9233 15.4979 37.5975C16.4614 38.2718 17.6318 38.5849 18.8033 38.4817C19.3283 39.2917 19.9783 40.0133 20.7249 40.6183C19.755 40.9399 18.7297 41.0599 17.7117 40.971C16.6938 40.8821 15.7048 40.586 14.8054 40.1011C13.9059 39.6162 13.1151 38.9527 12.4813 38.1511C11.8476 37.3496 11.3843 36.427 11.1199 35.44L9.93325 31.0133C9.73317 30.2663 9.83796 29.4704 10.2246 28.8006C10.6112 28.1309 11.248 27.642 11.9949 27.4417L17.5166 25.9633ZM32.2749 40.6183C32.4138 40.665 32.5544 40.7072 32.6966 40.745C34.6179 41.2596 36.6649 40.99 38.3874 39.9955C40.1099 39.0009 41.3668 37.3629 41.8816 35.4417L43.0683 31.015C43.1676 30.645 43.193 30.2591 43.1432 29.8792C43.0933 29.4994 42.9691 29.1331 42.7776 28.8013C42.5862 28.4694 42.3312 28.1786 42.0274 27.9453C41.7235 27.712 41.3766 27.5409 41.0066 27.4417L35.4833 25.9617C35.6044 26.3728 35.6655 26.8022 35.6666 27.25V28.6L40.3599 29.8567C40.4664 29.8856 40.557 29.9555 40.612 30.051C40.667 30.1466 40.6818 30.2601 40.6533 30.3667L39.4666 34.795C39.1622 35.9313 38.4669 36.9238 37.503 37.5981C36.5391 38.2724 35.3683 38.5853 34.1966 38.4817C33.6723 39.2905 33.0238 40.0116 32.2749 40.6183Z" fill="#4D0068"/>
<path d="M8.00791 68L1.84791 60.006L2.63191 59.782V68H1.23191V58.466H2.42191L8.37191 66.18H7.79791V58.466H9.19791V68H8.00791ZM14.3535 68.14C13.6909 68.14 13.1075 67.9953 12.6035 67.706C12.0995 67.4073 11.7075 66.992 11.4275 66.46C11.1475 65.928 11.0075 65.3073 11.0075 64.598C11.0075 63.8793 11.1475 63.254 11.4275 62.722C11.7075 62.19 12.0995 61.7747 12.6035 61.476C13.1075 61.1773 13.6909 61.028 14.3535 61.028C15.0255 61.028 15.6135 61.1773 16.1175 61.476C16.6215 61.7747 17.0135 62.19 17.2935 62.722C17.5735 63.254 17.7135 63.8793 17.7135 64.598C17.7135 64.6633 17.7089 64.7333 17.6995 64.808C17.6995 64.8733 17.6949 64.934 17.6855 64.99H12.3375V63.786H16.6775L16.2855 64.598C16.2855 63.8887 16.1269 63.3053 15.8095 62.848C15.4922 62.3907 15.0069 62.162 14.3535 62.162C13.7749 62.162 13.3129 62.3487 12.9675 62.722C12.6222 63.086 12.4495 63.5667 12.4495 64.164V64.892C12.4495 65.5173 12.6175 66.0167 12.9535 66.39C13.2895 66.754 13.7562 66.936 14.3535 66.936C14.9042 66.936 15.3289 66.8193 15.6275 66.586C15.9262 66.3527 16.1875 66.0633 16.4115 65.718L17.4615 66.376C17.1442 66.964 16.7335 67.4073 16.2295 67.706C15.7349 67.9953 15.1095 68.14 14.3535 68.14ZM21.6207 68.126C21.0234 68.126 20.5474 67.9533 20.1927 67.608C19.8474 67.2533 19.6747 66.7073 19.6747 65.97V61.252V61.168L19.9407 59.628H21.0747V65.998C21.0747 66.2593 21.1401 66.4553 21.2707 66.586C21.4107 66.7167 21.5834 66.782 21.7887 66.782C21.9474 66.782 22.0874 66.7727 22.2087 66.754C22.3301 66.7353 22.4374 66.712 22.5307 66.684V67.986C22.4094 68.0233 22.2741 68.056 22.1247 68.084C21.9847 68.112 21.8167 68.126 21.6207 68.126ZM18.6247 62.456V61.168H22.5307V62.456H18.6247ZM25.714 68L23.558 61.168H24.958L26.372 66.194H26.246L27.842 61.168H29.116L30.712 66.194H30.586L32 61.168H33.4L31.244 68H30.054L28.36 62.666H28.598L26.904 68H25.714ZM37.4861 68.14C36.7955 68.14 36.1841 67.9953 35.6521 67.706C35.1294 67.4073 34.7234 66.992 34.4341 66.46C34.1448 65.928 34.0001 65.3073 34.0001 64.598C34.0001 63.8793 34.1448 63.254 34.4341 62.722C34.7234 62.19 35.1294 61.7747 35.6521 61.476C36.1841 61.1773 36.7955 61.028 37.4861 61.028C38.1861 61.028 38.7975 61.1773 39.3201 61.476C39.8428 61.7747 40.2488 62.19 40.5381 62.722C40.8368 63.254 40.9861 63.8793 40.9861 64.598C40.9861 65.3073 40.8368 65.928 40.5381 66.46C40.2488 66.992 39.8428 67.4073 39.3201 67.706C38.7975 67.9953 38.1861 68.14 37.4861 68.14ZM37.4861 66.796C38.1115 66.796 38.6108 66.5953 38.9841 66.194C39.3668 65.7833 39.5581 65.2513 39.5581 64.598C39.5581 63.9353 39.3668 63.3987 38.9841 62.988C38.6108 62.5773 38.1115 62.372 37.4861 62.372C36.8701 62.372 36.3708 62.5773 35.9881 62.988C35.6148 63.3893 35.4281 63.9213 35.4281 64.584C35.4281 65.2467 35.6148 65.7833 35.9881 66.194C36.3708 66.5953 36.8701 66.796 37.4861 66.796ZM43.5125 61.168L43.8485 63.016V68H42.4485V61.168H43.5125ZM43.6385 63.59L43.3025 63.436V62.414L43.4285 62.26C43.5218 62.092 43.6665 61.9147 43.8625 61.728C44.0678 61.532 44.3058 61.3687 44.5765 61.238C44.8471 61.098 45.1225 61.028 45.4025 61.028C45.5425 61.028 45.6731 61.0373 45.7945 61.056C45.9251 61.0747 46.0231 61.1073 46.0885 61.154V62.414H45.6545C45.0198 62.414 44.5578 62.512 44.2685 62.708C43.9791 62.8947 43.7691 63.1887 43.6385 63.59ZM48.4506 64.556V64.36L51.4186 61.168H53.0706L49.7386 64.822L49.6126 63.898L53.0986 68H51.4186L48.4506 64.556ZM47.4146 58.466H48.7866V68H47.4146V58.466Z" fill="#4D0068"/>
</svg>
