<svg width="41" height="40" viewBox="0 0 41 40" fill="none" xmlns="http://www.w3.org/2000/svg">
<path d="M20.4999 7.5C19.7264 7.5 18.9845 7.80729 18.4375 8.35427C17.8905 8.90125 17.5833 9.64312 17.5833 10.4167C17.5833 11.1902 17.8905 11.9321 18.4375 12.4791C18.9845 13.026 19.7264 13.3333 20.4999 13.3333C21.2735 13.3333 22.0153 13.026 22.5623 12.4791C23.1093 11.9321 23.4166 11.1902 23.4166 10.4167C23.4166 9.64312 23.1093 8.90125 22.5623 8.35427C22.0153 7.80729 21.2735 7.5 20.4999 7.5ZM15.0833 10.4167C15.0833 8.98008 15.6539 7.60233 16.6698 6.5865C17.6856 5.57068 19.0633 5 20.4999 5C21.9365 5 23.3143 5.57068 24.3301 6.5865C25.3459 7.60233 25.9166 8.98008 25.9166 10.4167C25.9166 11.8533 25.3459 13.231 24.3301 14.2468C23.3143 15.2627 21.9365 15.8333 20.4999 15.8333C19.0633 15.8333 17.6856 15.2627 16.6698 14.2468C15.6539 13.231 15.0833 11.8533 15.0833 10.4167ZM8.83325 10.8333C8.17021 10.8333 7.53433 11.0967 7.06549 11.5656C6.59664 12.0344 6.33325 12.6703 6.33325 13.3333C6.33325 13.9964 6.59664 14.6323 7.06549 15.1011C7.53433 15.5699 8.17021 15.8333 8.83325 15.8333C9.49629 15.8333 10.1322 15.5699 10.601 15.1011C11.0699 14.6323 11.3333 13.9964 11.3333 13.3333C11.3333 12.6703 11.0699 12.0344 10.601 11.5656C10.1322 11.0967 9.49629 10.8333 8.83325 10.8333ZM3.83325 13.3333C3.83325 12.0073 4.36004 10.7355 5.29772 9.7978C6.2354 8.86012 7.50717 8.33333 8.83325 8.33333C10.1593 8.33333 11.4311 8.86012 12.3688 9.7978C13.3065 10.7355 13.8333 12.0073 13.8333 13.3333C13.8333 14.6594 13.3065 15.9312 12.3688 16.8689C11.4311 17.8066 10.1593 18.3333 8.83325 18.3333C7.50717 18.3333 6.2354 17.8066 5.29772 16.8689C4.36004 15.9312 3.83325 14.6594 3.83325 13.3333ZM29.6666 13.3333C29.6666 12.6703 29.93 12.0344 30.3988 11.5656C30.8677 11.0967 31.5035 10.8333 32.1666 10.8333C32.8296 10.8333 33.4655 11.0967 33.9344 11.5656C34.4032 12.0344 34.6666 12.6703 34.6666 13.3333C34.6666 13.9964 34.4032 14.6323 33.9344 15.1011C33.4655 15.5699 32.8296 15.8333 32.1666 15.8333C31.5035 15.8333 30.8677 15.5699 30.3988 15.1011C29.93 14.6323 29.6666 13.9964 29.6666 13.3333ZM32.1666 8.33333C30.8405 8.33333 29.5687 8.86012 28.6311 9.7978C27.6934 10.7355 27.1666 12.0073 27.1666 13.3333C27.1666 14.6594 27.6934 15.9312 28.6311 16.8689C29.5687 17.8066 30.8405 18.3333 32.1666 18.3333C33.4927 18.3333 34.7644 17.8066 35.7021 16.8689C36.6398 15.9312 37.1666 14.6594 37.1666 13.3333C37.1666 12.0073 36.6398 10.7355 35.7021 9.7978C34.7644 8.86012 33.4927 8.33333 32.1666 8.33333ZM12.9999 21.25C12.9999 19.64 14.3066 18.3333 15.9166 18.3333H25.0833C26.6933 18.3333 27.9999 19.64 27.9999 21.25V27.5C27.9999 29.4891 27.2097 31.3968 25.8032 32.8033C24.3967 34.2098 22.489 35 20.4999 35C18.5108 35 16.6031 34.2098 15.1966 32.8033C13.7901 31.3968 12.9999 29.4891 12.9999 27.5V21.25ZM15.9166 20.8333C15.8061 20.8333 15.7001 20.8772 15.622 20.9554C15.5438 21.0335 15.4999 21.1395 15.4999 21.25V27.5C15.4999 28.8261 16.0267 30.0979 16.9644 31.0355C17.9021 31.9732 19.1738 32.5 20.4999 32.5C21.826 32.5 23.0978 31.9732 24.0355 31.0355C24.9731 30.0979 25.4999 28.8261 25.4999 27.5V21.25C25.4999 21.1395 25.456 21.0335 25.3779 20.9554C25.2997 20.8772 25.1938 20.8333 25.0833 20.8333H15.9166ZM11.5166 19.9633C11.3955 20.3733 11.3344 20.8022 11.3333 21.25V22.6L6.64325 23.8567C6.53651 23.8852 6.44547 23.9549 6.39015 24.0506C6.33483 24.1462 6.31976 24.2599 6.34825 24.3667L7.53492 28.795C7.83929 29.931 8.53432 30.9233 9.49786 31.5975C10.4614 32.2718 11.6318 32.5849 12.8033 32.4817C13.3283 33.2917 13.9783 34.0133 14.7249 34.6183C13.755 34.9399 12.7297 35.0599 11.7117 34.971C10.6938 34.8821 9.70478 34.586 8.80536 34.1011C7.90593 33.6162 7.11508 32.9527 6.48133 32.1511C5.84758 31.3496 5.3843 30.427 5.11992 29.44L3.93325 25.0133C3.73317 24.2663 3.83796 23.4704 4.22457 22.8006C4.61119 22.1309 5.24798 21.642 5.99492 21.4417L11.5166 19.9633ZM26.2749 34.6183C26.4138 34.665 26.5544 34.7072 26.6966 34.745C28.6179 35.2596 30.6649 34.99 32.3874 33.9955C34.1099 33.0009 35.3668 31.3629 35.8816 29.4417L37.0683 25.015C37.1676 24.645 37.193 24.2591 37.1432 23.8792C37.0933 23.4994 36.9691 23.1331 36.7776 22.8013C36.5862 22.4694 36.3312 22.1786 36.0274 21.9453C35.7235 21.712 35.3766 21.5409 35.0066 21.4417L29.4833 19.9617C29.6044 20.3728 29.6655 20.8022 29.6666 21.25V22.6L34.3599 23.8567C34.4664 23.8856 34.557 23.9555 34.612 24.051C34.667 24.1466 34.6818 24.2601 34.6533 24.3667L33.4666 28.795C33.1622 29.9313 32.4669 30.9238 31.503 31.5981C30.5391 32.2724 29.3683 32.5853 28.1966 32.4817C27.6723 33.2905 27.0238 34.0116 26.2749 34.6183Z" fill="#4D0068"/>
</svg>
